<svg width="211" height="42" viewBox="0 0 211 42" fill="none" xmlns="http://www.w3.org/2000/svg">
<g clip-path="url(#clip0_814_93)">
<g clip-path="url(#clip1_814_93)">
<path d="M64.87 22.748L67.974 13.755H63.959L58.413 29.768H63.029L69.053 20.214L65.763 29.768H69.797L75.292 13.755H70.651L64.87 22.748Z" fill="black"/>
<path d="M75.485 17.298H78.567L74.302 29.768H78.47L82.72 17.298H85.846L87.051 13.755H76.7L75.485 17.298Z" fill="black"/>
<path fill-rule="evenodd" clip-rule="evenodd" d="M89.14 22.294L89.131 22.264L89.175 22.248L89.14 22.294ZM89.36 23.284C95.499 22.984 95.637 19.9 95.637 19.9H95.466H90.505L91.431 17.164H96.723L97.872 13.755H88.435L82.995 29.769H92.676L93.825 26.36H88.317L89.36 23.284Z" fill="black"/>
<path fill-rule="evenodd" clip-rule="evenodd" d="M103.403 20.191C103.022 20.505 102.571 20.662 102.05 20.662H101.267L102.576 16.759H103.358C104.43 16.759 104.748 17.409 104.312 18.71C104.087 19.384 103.784 19.877 103.403 20.191ZM108.675 15.179C108.443 14.738 108.079 14.39 107.584 14.136C107.089 13.882 106.447 13.755 105.659 13.755H99.435L94.045 29.769H98.213L100.259 23.669H101.714C103.429 23.669 104.867 23.258 106.029 22.435C107.19 21.613 108.05 20.364 108.609 18.689C108.839 18.001 108.965 17.354 108.988 16.749C109.011 16.143 108.907 15.62 108.675 15.179Z" fill="black"/>
<path fill-rule="evenodd" clip-rule="evenodd" d="M114.182 25.227C113.979 25.728 113.783 26.128 113.594 26.427C113.405 26.726 113.208 26.94 113.001 27.066C112.794 27.193 112.565 27.256 112.311 27.256C111.998 27.256 111.775 27.174 111.643 27.009C111.51 26.845 111.466 26.553 111.508 26.134C111.549 25.716 111.674 25.151 111.88 24.441C112.086 23.731 112.368 22.837 112.725 21.76C113.083 20.684 113.394 19.79 113.66 19.08C113.926 18.37 114.176 17.806 114.412 17.387C114.647 16.968 114.885 16.677 115.126 16.512C115.367 16.348 115.644 16.265 115.956 16.265C116.358 16.265 116.593 16.43 116.663 16.759C116.733 17.088 116.616 17.709 116.314 18.621L116.017 19.518H120.039L120.372 18.509C120.628 17.732 120.766 17.032 120.785 16.412C120.804 15.792 120.682 15.261 120.418 14.82C120.154 14.379 119.736 14.039 119.16 13.799C118.585 13.56 117.829 13.441 116.892 13.441C115.822 13.441 114.873 13.587 114.048 13.878C113.222 14.17 112.477 14.644 111.812 15.302C111.146 15.96 110.543 16.819 110.004 17.881C109.464 18.943 108.94 20.236 108.432 21.761C107.928 23.271 107.581 24.55 107.388 25.596C107.196 26.643 107.199 27.495 107.398 28.152C107.597 28.81 108.022 29.285 108.672 29.576C109.322 29.868 110.23 30.013 111.395 30.013C112.067 30.013 112.746 29.938 113.43 29.789C114.114 29.64 114.77 29.363 115.396 28.959C116.022 28.555 116.602 27.998 117.136 27.288C117.668 26.578 118.123 25.655 118.498 24.518L118.891 23.329H114.865C114.614 24.094 114.386 24.726 114.182 25.227Z" fill="black"/>
<path fill-rule="evenodd" clip-rule="evenodd" d="M135.083 13.755H130.666L125.523 19.9L127.543 13.755H123.393L118.111 29.768H122.279L123.672 25.529L124.988 24.184L125.596 29.768H130.346L128.774 20.752L135.083 13.755Z" fill="black"/>
<path fill-rule="evenodd" clip-rule="evenodd" d="M137.493 22.748L140.418 13.755H136.402L131.176 29.768H135.793L141.625 20.214L138.527 29.768H142.56L147.735 13.755H143.095L137.493 22.748Z" fill="black"/>
<path fill-rule="evenodd" clip-rule="evenodd" d="M150.328 22.748L153.219 13.755H149.226L144.06 29.768H148.676L154.473 20.214L151.41 29.768H155.421L160.537 13.755H155.897L150.328 22.748Z" fill="black"/>
<path fill-rule="evenodd" clip-rule="evenodd" d="M155.297 12.633C156.457 12.633 157.438 12.308 158.241 11.657C159.044 11.007 159.654 10.121 160.072 8.99902H158.134C157.665 10.046 154.589 10.046 154.792 8.99902H152.854C152.552 10.12 152.59 11.006 152.968 11.657C153.346 12.308 154.122 12.633 155.297 12.633Z" fill="black"/>
<path fill-rule="evenodd" clip-rule="evenodd" d="M185.432 13.755H181.283L177.331 26.36H174.98L178.941 13.755H174.792L170.816 26.36H168.465L172.449 13.755H168.3L163.22 29.769H178.006L177.055 32.808C177.055 32.808 177.065 32.81 177.08 32.812L177.071 32.842L177.098 32.815C177.509 32.864 180.822 33.041 182.906 26.361H181.495L185.432 13.755Z" fill="black"/>
<path fill-rule="evenodd" clip-rule="evenodd" d="M189.13 22.748L191.923 13.755H187.908L182.916 29.768H187.532L193.225 20.214L190.266 29.768H194.3L199.241 13.755H194.6L189.13 22.748Z" fill="black"/>
<path fill-rule="evenodd" clip-rule="evenodd" d="M200.649 13.755L199.557 17.298H202.638L198.805 29.768H202.973L206.792 17.298H209.918L211 13.755H200.649Z" fill="black"/>
<path fill-rule="evenodd" clip-rule="evenodd" d="M51.604 13.755H49.658C49.658 13.755 48.492 15.572 50.624 16.552L46 29.768H50.168L54.564 17.164H57.109L52.723 29.768H56.891L62.446 13.754H54.351L51.604 13.755Z" fill="black"/>
</g>
<g clip-path="url(#clip2_814_93)">
<path fill-rule="evenodd" clip-rule="evenodd" d="M9.7516 25.7325C12.5428 30.2581 16.1567 34.9566 20.0008 38.6439C23.8011 35.016 27.4129 30.3005 30.1978 25.8186C26.808 27.3083 23.5028 28.8658 20.0005 30.0962C16.4999 28.8727 13.1292 27.2615 9.7516 25.7325ZM32.4345 21.8386C32.9374 20.8207 33.3909 19.7709 33.8283 18.7237C29.0414 19.1883 23.4304 20.307 18.7661 21.284C23.509 21.2838 27.7779 21.467 32.4345 21.8386ZM34.8001 16.0454C35.7356 13.4051 36.7188 10.6246 37.2605 7.87488C33.8069 7.1923 30.5049 6.28994 27.2451 4.94345C26.2144 4.51779 25.0614 4.03342 24.084 3.50693C22.766 5.61555 21.4847 7.64697 20.0008 9.01698C18.5169 7.64697 17.2357 5.61555 15.9176 3.50693C14.9402 4.03342 13.7872 4.51779 12.7566 4.94345C9.49667 6.28994 6.19471 7.19225 2.74111 7.87488C3.28285 10.6256 4.26702 13.4082 5.20286 16.0493C10.1431 15.4736 15.0901 15.156 20.0655 15.1649C24.9955 15.1734 29.9025 15.4997 34.8001 16.0454ZM7.4539 21.6074C13.7742 19.8872 19.114 18.7861 25.416 17.545C19.2211 17.2809 12.1194 17.6188 6.0457 18.4156C6.48353 19.4837 6.94914 20.5676 7.4539 21.6074ZM5.96798 23.9279C4.84499 21.7391 3.86176 19.4858 3.04967 17.1973C1.74806 13.5278 0.599591 9.96909 0.00238037 6.11024C4.5656 5.44681 8.97684 4.17079 13.1318 2.17027C14.4098 1.55488 15.5346 0.922175 16.4521 0.309299L16.9121 0.00231934C17.7864 1.81067 18.7894 3.96933 20.0008 5.56666C21.2751 3.82155 22.1559 1.93351 23.0896 0.00231934L23.5493 0.309299C24.467 0.922175 25.5918 1.55488 26.8698 2.17027C31.0305 4.17356 35.4311 5.44345 39.9991 6.11024C39.4097 9.9564 38.2491 13.5401 36.9519 17.1973C36.1399 19.4858 35.1565 21.7391 34.0337 23.9279C30.6179 30.585 25.8316 36.8694 20.188 41.8327L20.0008 41.9974L19.8137 41.8327C14.169 36.8686 9.40159 30.6122 5.96798 23.9279ZM20.0049 27.437C22.6268 26.3819 25.5624 25.2368 28.1136 24.0456C22.5937 23.7332 17.3556 23.7396 11.8356 24.0505C14.2963 25.1901 17.4153 26.4066 20.0049 27.437Z" fill="black"/>
</g>
</g>
<defs>
<clipPath id="clip0_814_93">
<rect width="211" height="42" fill="white"/>
</clipPath>
<clipPath id="clip1_814_93">
<rect width="165" height="23.841" fill="white" transform="translate(46 9)"/>
</clipPath>
<clipPath id="clip2_814_93">
<rect width="40" height="42" fill="white"/>
</clipPath>
</defs>
</svg>
