<?xml version="1.0" encoding="utf-8"?>
<!-- Generator: Adobe Illustrator 17.1.0, SVG Export Plug-In . SVG Version: 6.00 Build 0)  -->
<!DOCTYPE svg PUBLIC "-//W3C//DTD SVG 1.1//EN" "http://www.w3.org/Graphics/SVG/1.1/DTD/svg11.dtd">
<svg version="1.1" id="Layer_1" xmlns="http://www.w3.org/2000/svg" xmlns:xlink="http://www.w3.org/1999/xlink" x="0px" y="0px"
	 viewBox="0 0 41.441 44" enable-background="new 0 0 41.441 44" xml:space="preserve">
<path fill-rule="evenodd" clip-rule="evenodd" fill="#FFFFFF" d="M20.787,28.745c0.557-0.227,1.239-0.516,1.995-0.844
	c0.864-0.376,1.809-0.795,2.758-1.224c0.809-0.366,1.756-0.697,2.605-1.028c0.337-0.155,0.665-0.308,0.981-0.457
	c-2.74-0.157-5.447-0.265-8.348-0.276c-2.96,0.012-5.721,0.122-8.518,0.281c1.042,0.488,2.529,0.948,3.718,1.479
	c0.961,0.429,1.916,0.849,2.79,1.224C19.534,28.229,20.224,28.518,20.787,28.745z M6.888,26.421l-0.031-0.057l-0.033-0.062
	l-0.021-0.039l-0.04-0.074l-0.013-0.024c-0.017-0.031-0.033-0.063-0.05-0.094L6.69,26.049c-0.016-0.03-0.031-0.059-0.047-0.089
	l-0.007-0.013c-0.017-0.033-0.035-0.067-0.053-0.1l-0.003-0.005l-0.003-0.005c-0.017-0.033-0.035-0.066-0.052-0.1l-0.005-0.01
	c-0.017-0.032-0.033-0.064-0.05-0.096l-0.005-0.009l-0.002-0.003l-0.003-0.005l-0.045-0.086l-0.008-0.016l-0.004-0.007
	c-0.036-0.069-0.071-0.139-0.107-0.208l-0.009-0.016c-0.016-0.032-0.033-0.064-0.049-0.097l-0.004-0.008
	c-0.018-0.036-0.037-0.072-0.055-0.107c-1.164-2.293-2.182-4.654-3.024-7.052c-0.326-0.928-0.645-1.854-0.947-2.77
	c-0.304-0.92-0.594-1.845-0.864-2.775c-0.27-0.932-0.517-1.86-0.73-2.782C0.401,8.764,0.22,7.843,0.081,6.93L0.014,6.488L0,6.4
	l0.089-0.013l0.444-0.065c1.485-0.219,2.963-0.525,4.403-0.894c1.542-0.396,3.042-0.866,4.459-1.381
	c1.515-0.551,2.934-1.154,4.208-1.774c1.324-0.645,2.49-1.308,3.44-1.95l0.452-0.305L17.52,0l0.037,0.077
	c0.956,2.005,1.886,3.956,2.991,5.504l0.003,0.004l0.002,0.003l0.001,0.001l0.003,0.004l0.002,0.002l0.001,0.002l0.003,0.004
	l0.001,0.002l0.002,0.002l0.003,0.004l0,0.001l0.002,0.003l0.003,0.004l0.003,0.004l0.002,0.003l0.001,0.001l0.003,0.004
	l0.002,0.002l0.001,0.002l0.003,0.004l0.001,0.002l0.002,0.002l0.003,0.004l0.001,0.001l0.002,0.003l0.003,0.004l0.003,0.004
	L20.6,5.66l0.001,0.001l0.003,0.004l0.002,0.002l0.001,0.002l0.003,0.004l0.001,0.002l0.002,0.002l0.003,0.004l0.001,0.001
	l0.002,0.003l0.003,0.004l0.003,0.004l0.002,0.003l0.001,0.001l0.003,0.004l0.002,0.002l0.001,0.002l0.003,0.004l0.001,0.002
	l0.002,0.002l0.003,0.004l0.001,0.001l0.002,0.003l0.003,0.004l0.003,0.004l0.002,0.003l0.001,0.001l0.003,0.004l0.002,0.002
	l0.004,0.005l0.001,0.002l0.002,0.002l0.003,0.004l0.001,0.001l0.002,0.003L20.67,5.76l0.003,0.004l0.002,0.003l0.001,0.001
	l0.003,0.004l0.002,0.002l0.001,0.001l0.003,0.004l0.001,0.002l0.002,0.002l0.003,0.004l0,0.001l0.002,0.003l0.003,0.004
	l0.003,0.004L20.699,5.8l0.001,0.001l0.003,0.004l0.002,0.002l0.001,0.001l0.003,0.004l0.001,0.002l0.002,0.002l0.003,0.004
	l0.001,0.001l0.002,0.003l0.003,0.004L20.72,5.83c0.055-0.076,0.118-0.164,0.173-0.249c1.105-1.548,2.035-3.499,2.99-5.504L23.921,0
	l0.024,0.016l0.452,0.305c0.951,0.642,2.116,1.305,3.44,1.95c1.274,0.62,2.694,1.223,4.208,1.774
	c1.417,0.515,2.917,0.985,4.459,1.381c1.44,0.37,2.918,0.675,4.403,0.894l0.444,0.065L41.441,6.4l-0.013,0.088L41.36,6.93
	c-0.139,0.913-0.321,1.834-0.535,2.759c-0.213,0.922-0.46,1.85-0.73,2.782c-0.27,0.93-0.561,1.855-0.864,2.775
	c-0.302,0.916-0.622,1.841-0.947,2.77c-0.841,2.398-1.86,4.759-3.024,7.052c-0.912,1.798-1.914,3.555-2.988,5.255
	c-0.337,0.54-0.681,1.074-1.032,1.601c-0.071,0.106-0.141,0.212-0.212,0.317h-0.014c-1.452,2.131-3.016,4.16-4.656,6.053
	c-1.741,2.01-3.569,3.867-5.442,5.533L20.72,44l-0.194-0.172c-1.873-1.666-3.701-3.523-5.442-5.533
	c-0.026-0.03-0.051-0.059-0.077-0.089l-0.004-0.004c-0.024-0.028-0.049-0.057-0.073-0.085l-0.003-0.003l-0.038-0.044l-0.041-0.048
	l-0.033-0.038l-0.046-0.054l-0.033-0.039l-0.046-0.054l-0.035-0.041l-0.043-0.051l-0.036-0.043l-0.04-0.048l-0.041-0.049
	l-0.036-0.043l-0.04-0.048l-0.038-0.045l-0.04-0.048l-0.04-0.047l-0.034-0.041l-0.045-0.054l-0.035-0.042l-0.042-0.051l-0.035-0.042
	l-0.043-0.053l-0.034-0.041l-0.044-0.053l-0.035-0.043l-0.041-0.05l-0.034-0.042l-0.044-0.054l-0.034-0.041l-0.046-0.057
	l-0.028-0.035c-0.021-0.025-0.041-0.05-0.061-0.076l-0.015-0.018l-0.053-0.065l-0.024-0.03l-0.004-0.006
	c-0.025-0.031-0.049-0.061-0.074-0.092l-0.001-0.001c-0.025-0.031-0.05-0.062-0.074-0.093l-0.003-0.004
	c-0.024-0.03-0.048-0.06-0.071-0.089L13.345,36.2l-0.035-0.044l-0.042-0.054l-0.029-0.037l-0.047-0.059l-0.035-0.045l-0.039-0.05
	l-0.036-0.046l-0.04-0.05l-0.037-0.047l-0.039-0.049l-0.04-0.051l-0.032-0.041l-0.042-0.055l-0.033-0.043l-0.043-0.055l-0.03-0.039
	L12.7,35.376l-0.03-0.039l-0.045-0.058l-0.028-0.037l-0.047-0.061l-0.028-0.037l-0.044-0.057l-0.036-0.047l-0.036-0.047
	l-0.041-0.054l-0.033-0.044l-0.041-0.054l-0.032-0.043l-0.045-0.06l-0.029-0.038l-0.041-0.055l-0.034-0.046l-0.033-0.044
	l-0.041-0.055l-0.001-0.001c-0.023-0.031-0.047-0.063-0.07-0.094l-0.001-0.002c-0.024-0.032-0.048-0.064-0.071-0.096l-0.002-0.003
	c-0.023-0.031-0.046-0.063-0.069-0.094l-0.002-0.002l-0.047-0.063l-0.025-0.034l-0.043-0.058l-0.032-0.044l-0.031-0.042L11.6,33.906
	l-0.036-0.05L11.53,33.81l-0.041-0.056l-0.033-0.046l-0.033-0.046l-0.041-0.057l-0.031-0.043l-0.04-0.055l-0.035-0.049l-0.035-0.049
	l-0.038-0.053l-0.034-0.048l-0.037-0.052l-0.035-0.049l-0.038-0.053l-0.031-0.045l-0.039-0.056l-0.035-0.05l-0.033-0.047
	l-0.041-0.058l-0.032-0.045l-0.038-0.054l-0.033-0.047l-0.034-0.05l-0.039-0.056c-0.969-1.401-1.866-2.791-2.721-4.266L6.888,26.421
	z M7.308,21.743c0.131,0.295,0.269,0.593,0.413,0.894c6.548-1.802,12.081-2.956,18.611-4.256c-6.419-0.277-13.777,0.077-20.07,0.912
	c0.069,0.171,0.147,0.359,0.23,0.559c0.104,0.248,0.218,0.518,0.338,0.795C6.99,21.02,7.153,21.394,7.308,21.743z M36.054,16.809
	l0.795-2.268c0.274-0.826,0.549-1.701,0.802-2.56c0.215-0.73,0.415-1.45,0.585-2.122c0.148-0.585,0.274-1.13,0.368-1.611
	c-1.306-0.261-2.526-0.536-3.692-0.837c-1.19-0.307-2.32-0.639-3.426-1.009c-1.1-0.368-2.175-0.772-3.26-1.226
	c-1.068-0.446-2.262-0.953-3.275-1.505c-1.366,2.209-2.693,4.337-4.231,5.773c-1.538-1.435-2.865-3.564-4.231-5.773
	c-1.013,0.552-2.207,1.059-3.275,1.505c-1.085,0.453-2.16,0.858-3.26,1.226c-1.106,0.37-2.236,0.702-3.426,1.009
	C5.363,7.712,4.144,7.987,2.837,8.248c0.094,0.48,0.219,1.026,0.368,1.611c0.171,0.672,0.37,1.393,0.585,2.122
	c0.253,0.859,0.528,1.733,0.802,2.56l0.796,2.272c2.664-0.314,5.242-0.547,7.784-0.701c2.56-0.155,5.083-0.23,7.616-0.226
	c2.536,0.005,5.075,0.088,7.665,0.25C30.925,16.29,33.445,16.515,36.054,16.809z M33.603,22.879c0.187-0.382,0.364-0.762,0.53-1.136
	c0.154-0.348,0.318-0.723,0.478-1.096c0.119-0.278,0.234-0.547,0.338-0.795c0.034-0.081,0.066-0.159,0.098-0.236
	c-4.96,0.487-10.603,1.64-15.435,2.664c1.672,0.027,3.361,0.026,5.038,0.092C27.637,22.488,30.621,22.668,33.603,22.879z
	 M10.101,26.959c0.171,0.28,0.345,0.56,0.521,0.838c0.495,0.781,0.997,1.539,1.491,2.256l0.003,0.005
	c0.027,0.039,0.054,0.078,0.081,0.117c0.858,1.241,1.744,2.441,2.621,3.571c1.11,1.431,2.206,2.748,3.212,3.89l0.047,0.054
	l0.004,0.004l0.044,0.049l0.007,0.008l0.04,0.045l0.011,0.012l0.036,0.041l0.004,0.004l0.03,0.034l0.021,0.024l0.025,0.027
	l0.027,0.03l0.019,0.021l0.033,0.036l0.015,0.016l0.032,0.035l0.023,0.026l0.015,0.017l0.037,0.041l0.001,0.001l0.035,0.039
	l0.005,0.005l0.038,0.043l0.007,0.007l0.007,0.008l0.042,0.046l0.004,0.004l0.045,0.05l0,0l0.045,0.05l0.003,0.003l0.042,0.046
	l0.007,0.007l0.039,0.042l0.01,0.011l0.035,0.038l0.005,0.006l0.033,0.036l0.009,0.01l0.032,0.035l0.01,0.011l0.02,0.022
	l0.005,0.005l0.032,0.034l0.027,0.03l0.01,0.011l0.037,0.04l0.004,0.005l0.04,0.043l0.007,0.008l0.035,0.038l0.003,0.003
	l0.036,0.039l0.007,0.008l0.039,0.042l0.004,0.004l0.043,0.046l0.001,0.001l0.043,0.046l0.003,0.003l0.04,0.043
	c0.025,0.027,0.05,0.053,0.075,0.079l0.01,0.011l0.012,0.013l0.03,0.031l0.003,0.003l0.033,0.035l0.011,0.011l0.03,0.032
	l0.012,0.012l0.035,0.037l0.005,0.005l0.031,0.032l0.021,0.022l0.023,0.025l0.015,0.015l0.027,0.028l0.085,0.088l0.04,0.041
	l0.001,0.001c0.081,0.083,0.16,0.164,0.238,0.243l0,0.001l0.037,0.038l0.003,0.003c0.077,0.078,0.153,0.154,0.228,0.228l0.036,0.036
	l0.001,0.001l0.037,0.037c0.062,0.061,0.122,0.12,0.182,0.178l0,0c0.024,0.023,0.048,0.046,0.071,0.069
	c0.753-0.727,1.676-1.698,2.691-2.851c1.006-1.142,2.102-2.459,3.212-3.89c0.877-1.13,1.763-2.33,2.621-3.571
	c0.676-0.977,1.371-2.035,2.041-3.126c-3.386,1.505-6.752,3.146-10.218,4.426l-0.148,0.055l-0.03,0.011l-0.03-0.011l-0.072-0.025
	l-0.071,0.025l-0.003,0.001l-0.003-0.001l-0.15-0.053c-2.755-0.973-5.972-2.454-8.968-3.833l0,0h0l0,0l-0.002-0.001l0,0
	C11.072,27.405,10.562,27.169,10.101,26.959z"/>
</svg>
