<?xml version="1.0" encoding="utf-8"?>
<!-- Generator: Adobe Illustrator 17.1.0, SVG Export Plug-In . SVG Version: 6.00 Build 0)  -->
<!DOCTYPE svg PUBLIC "-//W3C//DTD SVG 1.1//EN" "http://www.w3.org/Graphics/SVG/1.1/DTD/svg11.dtd">
<svg version="1.1" id="Layer_1" xmlns="http://www.w3.org/2000/svg" xmlns:xlink="http://www.w3.org/1999/xlink" x="0px" y="0px"
	 width="508.594px" height="540px" viewBox="225.703 10 508.594 540" enable-background="new 225.703 10 508.594 540"
	 xml:space="preserve">
<path opacity="0.03" d="M480.816,362.78c6.836-2.786,15.206-6.333,24.484-10.358c10.604-4.615,22.201-9.757,33.848-15.022
	c9.929-4.492,21.551-8.554,31.97-12.616c4.136-1.902,8.161-3.78,12.04-5.609c-33.627-1.927-66.85-3.252-102.453-3.387
	c-36.327,0.147-70.212,1.497-104.539,3.449c12.788,5.989,31.038,11.635,45.63,18.151c11.794,5.265,23.515,10.42,34.241,15.022
	C465.438,356.447,473.907,359.994,480.816,362.78z M310.237,334.258l-0.38-0.7l-0.405-0.761l-0.258-0.479l-0.491-0.908l-0.16-0.295
	c-0.209-0.38-0.405-0.773-0.614-1.154l-0.123-0.27c-0.196-0.368-0.38-0.724-0.577-1.092l-0.086-0.16
	c-0.209-0.405-0.43-0.822-0.65-1.227l-0.037-0.061l-0.037-0.061c-0.209-0.405-0.43-0.81-0.638-1.227l-0.061-0.123
	c-0.209-0.393-0.405-0.785-0.614-1.178l-0.061-0.11l-0.025-0.037l-0.037-0.061l-0.552-1.055l-0.098-0.196l-0.049-0.086
	c-0.442-0.847-0.871-1.706-1.313-2.553l-0.11-0.196c-0.196-0.393-0.405-0.785-0.601-1.19l-0.049-0.098
	c-0.221-0.442-0.454-0.884-0.675-1.313c-14.285-28.141-26.779-57.117-37.113-86.547c-4.001-11.389-7.916-22.754-11.622-33.995
	c-3.731-11.291-7.29-22.643-10.604-34.057c-3.314-11.438-6.345-22.827-8.959-34.143c-2.614-11.365-4.835-22.668-6.541-33.873
	l-0.822-5.425l-0.172-1.08l1.092-0.16l5.449-0.798c18.225-2.688,36.364-6.443,54.037-10.972
	c18.925-4.86,37.334-10.628,54.724-16.949c18.593-6.762,36.008-14.163,51.644-21.772c16.249-7.916,30.559-16.053,42.218-23.932
	l5.547-3.743L440.721,10l0.454,0.945c11.733,24.607,23.146,48.551,36.708,67.549l0.037,0.049l0.025,0.037l0.012,0.012l0.037,0.049
	l0.025,0.025l0.012,0.025l0.037,0.049l0.012,0.025l0.025,0.025l0.037,0.049v0.012l0.025,0.037l0.037,0.049l0.037,0.049l0.025,0.037
	l0.012,0.012l0.037,0.049l0.025,0.025l0.012,0.025l0.037,0.049l0.012,0.025l0.025,0.025l0.037,0.049l0.012,0.012l0.025,0.037
	l0.037,0.049l0.037,0.049l-0.049,0.037l0.012,0.012l0.037,0.049l0.025,0.025l0.012,0.025l0.037,0.049l0.012,0.025l0.025,0.025
	l0.037,0.049l0.012,0.012l0.025,0.037l0.037,0.049l0.037,0.049l0.025,0.037l0.012,0.012l0.037,0.049l0.025,0.025l0.012,0.025
	l0.037,0.049l0.012,0.025l0.025,0.025l0.037,0.049l0.012,0.012l0.025,0.037l0.037,0.049l0.037,0.049l0.025,0.037l0.012,0.012
	l0.037,0.049l0.025,0.025l0.049,0.061l0.012,0.025l0.025,0.025l0.037,0.049l0.012,0.012l0.025,0.037l-0.037,0.049l0.037,0.049
	l0.025,0.037l0.012,0.012l0.037,0.049l0.025,0.025l0.012,0.012l0.037,0.049l0.012,0.025l0.025,0.025l0.037,0.049v0.012l0.025,0.037
	l0.037,0.049l0.037,0.049l0,0.012l0.012,0.012l0.037,0.049l0.025,0.025l0.012,0.012l0.037,0.049l0.012,0.025l0.025,0.025
	l0.037,0.049l0.012,0.012l0.025,0.037l0.037,0.049l-0.012,0.025c0.675-0.933,1.448-2.013,2.123-3.056
	c13.561-18.998,24.975-42.942,36.695-67.549L519.279,10l0.295,0.196l5.547,3.743c11.671,7.879,25.969,16.016,42.218,23.932
	c15.635,7.609,33.063,15.01,51.644,21.772c17.391,6.32,35.8,12.089,54.724,16.949c17.673,4.541,35.812,8.284,54.037,10.972
	l5.449,0.798l1.105,0.184l-0.16,1.08l-0.835,5.425c-1.706,11.205-3.94,22.508-6.566,33.86c-2.614,11.315-5.645,22.705-8.959,34.143
	c-3.314,11.414-6.885,22.766-10.604,34.057c-3.706,11.242-7.634,22.594-11.622,33.995c-10.321,29.43-22.827,58.406-37.113,86.547
	c-11.193,22.066-23.49,43.63-36.671,64.493c-4.136,6.627-8.358,13.181-12.665,19.649c-0.871,1.301-1.73,2.602-2.602,3.89h-0.172
	c-17.82,26.153-37.015,51.055-57.142,74.287c-21.367,24.668-43.801,47.459-66.788,67.905L479.994,550l-2.381-2.111
	c-22.987-20.446-45.421-43.237-66.788-67.905c-0.319-0.368-0.626-0.724-0.945-1.092l-0.049-0.049
	c-0.295-0.344-0.601-0.7-0.896-1.043l-0.037-0.037l-0.466-0.54l-0.503-0.589l-0.405-0.466l-0.565-0.663l-0.405-0.479l-0.565-0.663
	l-0.43-0.503l-0.528-0.626l-0.442-0.528l-0.491-0.589l-0.503-0.601l-0.442-0.528l-0.491-0.589l-0.466-0.552l-0.491-0.589
	l-0.491-0.577l-0.417-0.503l-0.552-0.663l-0.43-0.515l-0.515-0.626l-0.43-0.515l-0.528-0.65l-0.417-0.503l-0.54-0.65l-0.43-0.528
	l-0.503-0.614l-0.417-0.515l-0.54-0.663l-0.417-0.503l-0.565-0.7l-0.344-0.43c-0.258-0.307-0.503-0.614-0.749-0.933l-0.184-0.221
	l-0.65-0.798l-0.295-0.368l-0.049-0.074c-0.307-0.38-0.601-0.749-0.908-1.129l-0.012-0.012c-0.307-0.38-0.614-0.761-0.908-1.141
	l-0.037-0.049c-0.295-0.368-0.589-0.736-0.871-1.092l-0.025-0.012l-0.43-0.54l-0.515-0.663l-0.356-0.454l-0.577-0.724l-0.43-0.552
	l-0.479-0.614l-0.442-0.565l-0.491-0.614l-0.454-0.577l-0.479-0.601l-0.491-0.626l-0.393-0.503l-0.515-0.675l-0.405-0.528
	l-0.528-0.675l-0.368-0.479l-0.565-0.724l-0.368-0.479l-0.552-0.712l-0.344-0.454l-0.577-0.749l-0.344-0.454l-0.54-0.7l-0.442-0.577
	l-0.442-0.577l-0.503-0.663l-0.405-0.54l-0.503-0.663l-0.393-0.528l-0.552-0.736l-0.356-0.466l-0.503-0.675l-0.417-0.565
	l-0.405-0.54l-0.503-0.675l-0.012-0.012c-0.282-0.38-0.577-0.773-0.859-1.154l-0.012-0.025c-0.295-0.393-0.589-0.785-0.871-1.178
	l-0.025-0.037c-0.282-0.38-0.565-0.773-0.847-1.154l-0.025-0.025l-0.577-0.773l-0.307-0.417l-0.528-0.712l-0.393-0.54l-0.38-0.515
	l-0.515-0.749l-0.442-0.614l-0.417-0.565l-0.503-0.687l-0.405-0.565l-0.405-0.565l-0.503-0.7l-0.38-0.528l-0.491-0.675l-0.43-0.601
	l-0.43-0.601l-0.466-0.65l-0.417-0.589l-0.454-0.638l-0.43-0.601l-0.466-0.65l-0.38-0.552l-0.479-0.687l-0.43-0.614l-0.405-0.577
	l-0.503-0.712l-0.393-0.552l-0.466-0.663l-0.405-0.577l-0.417-0.614l-0.479-0.687c-11.892-17.194-22.901-34.253-33.394-52.355
	L310.237,334.258z M315.392,276.846c1.608,3.62,3.301,7.278,5.069,10.972c80.362-22.115,148.267-36.278,228.408-52.233
	c-78.779-3.4-169.081,0.945-246.314,11.193c0.847,2.099,1.804,4.406,2.823,6.86c1.276,3.044,2.675,6.357,4.148,9.757
	C311.489,267.973,313.49,272.563,315.392,276.846z M668.184,216.292l9.757-27.835c3.363-10.137,6.738-20.876,9.843-31.418
	c2.639-8.959,5.093-17.795,7.18-26.043c1.816-7.18,3.363-13.868,4.516-19.771c-16.028-3.203-31.001-6.578-45.311-10.272
	c-14.605-3.768-28.473-7.842-42.046-12.383c-13.5-4.516-26.693-9.475-40.009-15.046c-13.107-5.474-27.761-11.696-40.193-18.47
	c-16.765,27.11-33.05,53.227-51.926,70.85c-18.875-17.611-35.161-43.74-51.926-70.85c-12.432,6.775-27.086,12.997-40.193,18.47
	c-13.316,5.56-26.509,10.53-40.009,15.046c-13.574,4.541-27.442,8.615-42.046,12.383c-14.298,3.694-29.258,7.069-45.299,10.272
	c1.154,5.891,2.688,12.592,4.516,19.771c2.099,8.247,4.541,17.096,7.18,26.043c3.105,10.542,6.48,21.269,9.843,31.418l9.769,27.884
	c32.695-3.854,64.334-6.713,95.531-8.603c31.418-1.902,62.382-2.823,93.469-2.774c31.124,0.061,62.284,1.08,94.07,3.068
	C605.237,209.923,636.164,212.684,668.184,216.292z M638.103,290.788c2.295-4.688,4.467-9.352,6.505-13.942
	c1.89-4.271,3.903-8.873,5.866-13.451c1.46-3.412,2.872-6.713,4.148-9.757c0.417-0.994,0.81-1.951,1.203-2.896
	c-60.873,5.977-130.128,20.127-189.43,32.695c20.52,0.331,41.249,0.319,61.83,1.129
	C564.884,285.989,601.506,288.198,638.103,290.788z M349.67,340.86c2.099,3.436,4.234,6.873,6.394,10.285
	c6.075,9.585,12.236,18.888,18.299,27.687l0.037,0.061c0.331,0.479,0.663,0.957,0.994,1.436
	c10.53,15.23,21.404,29.958,32.167,43.826c13.623,17.562,27.074,33.725,39.42,47.741l0.577,0.663l0.049,0.049l0.54,0.601
	l0.086,0.098l0.491,0.552l0.135,0.147l0.442,0.503l0.049,0.049l0.368,0.417l0.258,0.295l0.307,0.331l0.331,0.368l0.233,0.258
	l0.405,0.442l0.184,0.196l0.393,0.43l0.282,0.319l0.184,0.209l0.454,0.503l0.012,0.012l0.43,0.479l0.061,0.061l0.466,0.528
	l0.086,0.086l0.086,0.098l0.515,0.565l0.049,0.049l0.552,0.614l0,0l0.552,0.614l0.037,0.037l0.515,0.565l0.086,0.086l0.479,0.515
	l0.123,0.135l0.43,0.466l0.061,0.074l0.405,0.442l0.11,0.123l0.393,0.43l0.123,0.135l0.245,0.27l0.061,0.061l0.393,0.417
	l0.331,0.368l0.123,0.135l0.454,0.491l0.049,0.061l0.491,0.528l0.086,0.098l0.43,0.466l0.037,0.037l0.442,0.479l0.086,0.098
	l0.479,0.515l0.049,0.049l0.528,0.565l0.012,0.012l0.528,0.565l0.037,0.037l0.491,0.528c0.307,0.331,0.614,0.65,0.92,0.97
	l0.123,0.135l0.147,0.16l0.368,0.38l0.037,0.037l0.405,0.43l0.135,0.135l0.368,0.393l0.147,0.147l0.43,0.454l0.061,0.061l0.38,0.393
	l0.258,0.27l0.282,0.307l0.184,0.184l0.331,0.344l1.043,1.08l0.491,0.503l0.012,0.012c0.994,1.019,1.964,2.013,2.921,2.982v0.012
	l0.454,0.466l0.037,0.037c0.945,0.957,1.878,1.89,2.798,2.798l0.442,0.442l0.012,0.012l0.454,0.454
	c0.761,0.749,1.497,1.473,2.234,2.185l0,0c0.295,0.282,0.589,0.565,0.871,0.847c9.241-8.922,20.569-20.839,33.026-34.99
	c12.346-14.015,25.797-30.179,39.42-47.741c10.763-13.868,21.637-28.595,32.167-43.826c8.296-11.99,16.826-24.975,25.049-38.365
	c-41.555,18.47-82.865,38.61-125.403,54.319l-1.816,0.675l-0.368,0.135l-0.368-0.135l-0.884-0.307l-0.871,0.307l-0.037,0.012
	l-0.037-0.012l-1.841-0.65c-33.811-11.941-73.293-30.117-110.062-47.041l0,0l0,0l0,0l-0.025-0.012l0,0
	C361.587,346.334,355.327,343.438,349.67,340.86z"/>
</svg>
