<?xml version="1.0" encoding="utf-8"?>
<!-- Generator: Adobe Illustrator 24.3.0, SVG Export Plug-In . SVG Version: 6.00 Build 0)  -->
<svg version="1.1" id="Layer_1" xmlns="http://www.w3.org/2000/svg" xmlns:xlink="http://www.w3.org/1999/xlink" x="0px" y="0px"
	 width="1920.001px" height="336.228px" viewBox="0 0 1920.001 336.228" enable-background="new 0 0 1920.001 336.228"
	 xml:space="preserve">
<path fill="#FFFFFF" d="M1919.977,106.188c-0.115,6.914-6.32,12.54-13.931,12.54h-43.096c-4.437,0.984-8.947,1.946-13.499,2.913
	c-3.15,2.329-5.211,5.844-5.211,9.833v186.129c0,7.011,2.742,12.746-4.932,12.746h-56.58c-7.677,0-13.952-5.735-13.952-12.746
	V138.435v-6.96c0-1.334-0.286-2.581-0.701-3.795c-1.796-5.157-5.445-8.952-11.671-8.952h-49.671
	c-7.674,0-13.952-5.729-13.952-12.735V70.479c0-6.988,6.279-12.74,13.952-12.74h199.314c1.978,0,3.865,0.406,5.574,1.093
	c4.922,1.969,8.382,6.456,8.382,11.647v35.514L1919.977,106.188z M1641.459,330.287h-47.56c-7.677,0-13.949-5.729-13.949-12.723
	v-47.288c0-7-3.561-8.769-7.911-3.921c0,0,0,0-5.375,5.134c-5.365,5.146-11.27,10.279-17.716,15.448
	c-2.466,1.992-4.998,3.984-7.59,6.004h0.01l-0.017,0.023c-2.191,1.734-4.416,3.44-6.69,5.174c-1.786,1.374-3.589,2.673-5.386,3.995
	c-17.067,11.459-46.57,29.402-92.326,28.154h-21.068c-7.674,0-13.949-5.729-13.949-12.723V211.266v-31.645V70.422
	c0-7,6.275-12.718,13.949-12.718h49.144c7.667,0,13.949,5.718,13.949,12.718v102.691v25.281v41.656
	c0,6.977,4.406,10.131,9.791,6.948c0,0,3.16,0,8.253-3.428c5.106-3.417,10.335-7.2,15.71-11.384
	c8.581-6.37,17.046-13.399,25.352-21.12c8.33-7.71,16.112-15.499,23.36-23.318c1.486-1.7,2.927-3.354,4.35-5.008
	c1.898-2.204,3.739-4.413,5.504-6.565c3.094-3.795,5.975-7.544,8.657-11.218v-1.167V70.422c0-7,6.272-12.718,13.949-12.718h47.56
	c7.674,0,13.952,5.718,13.952,12.718v83.42v5.695v158.026C1655.411,324.558,1649.133,330.287,1641.459,330.287z M1577.278,31.17
	c-13.53,7.652-28.847,11.47-45.959,11.47c-16.774,0-31.923-3.818-45.447-11.47c-6.059-3.446-10.984-7.446-14.884-12.008
	C1458.564,3.446,1475.174,0,1475.174,0h108.177c9.791,0,14.814,6.771,11.158,15.059C1594.509,15.059,1590.794,23.501,1577.278,31.17
	z M1350.307,330.35h-49.22c-14.598,0-18.79-8.574-20.011-12.483c-0.112-0.584-0.23-1.179-0.359-1.82
	c-0.269-1.288-0.572-2.867-0.896-4.573h-79.808V250.02h63.874c-2.557-8.379-5.145-16.701-7.437-23.976h0.007
	c-0.889-2.896-1.761-5.775-2.522-8.316c-0.045-0.824-0.15-1.654-0.415-2.535c0,0-0.314-1.082-2.086-5.975
	c-0.216-0.601-0.45-1.219-0.708-1.935c-2.421-6.611-4.828-12.987-7.248-19.099l-0.185-0.458
	c-4.235-10.337-8.26-19.197-12.086-26.563c-3.896-7.458-6.387-12.306-7.454-14.509c-7.001,13.633-13.401,27.931-19.387,42.686
	c-0.896,2.192-1.873,4.321-2.748,6.536c-4.66,11.91-8.867,33.666-12.875,45.565c-1.563,0.114-3.125,0.223-4.685,0.332h-10.185h-4.58
	h-65.102c4.238-13.462,8.804-36.591,13.569-49.703c7.004-19.265,14.514-38.176,22.662-56.594
	c11.849-26.815,23.984-49.817,36.43-69.009c1.569-2.272,7.137-8.728,19.858-8.728h52.942c7.681,0,17.155,4.951,21.061,10.949
	c0,0,13.893,21.475,22.882,38.491c8.985,16.999,17.109,34.101,24.354,51.243c3.544,8.385,6.84,16.695,9.994,24.983
	c4.332,11.396,8.35,22.705,12.02,33.94c3.554,10.852,6.899,21.675,9.784,32.384l0.087,0.292h0.474v1.803
	c6.296,23.409,11.41,45.021,15.355,64.836C1366.195,321.004,1365.585,330.35,1350.307,330.35z M1082.128,113.566
	c0,0,0,0-6.753-0.853c-6.763-0.813-13.966-1.087-21.609-0.795c-29.481,1.116-51.854,9.346-67.118,24.737
	c-14.933,15.036-21.972,34.295-21.243,57.625c0.025,0.504-0.01,1.002,0.01,1.494c1.04,23.054,6.963,40.11,17.755,51.134
	c10.785,11.024,22.467,18.584,35.048,22.682c6.68,1.9,13.203,4.613,19.561,5.203c5.124,0.509,9.7,0.715,13.767,0.698h111.18v41.988
	v14.738v1.047h-77.799l-295.554,0.395h0.004h-4.182h-0.038l-5.78,0.012c-4.517-0.12-9.798-0.498-13.077-0.727
	c-37.49-2.856-65.883-12.803-85.12-32.819c-24.225-25.172-38.373-53.481-42.429-84.851c-0.373-2.381-0.684-4.842-0.924-7.36
	c-0.255-2.536-0.432-4.991-0.541-7.378c-0.199-4.298-0.195-8.482-0.066-12.626c1.071-35.251,13.764-65.008,38.156-89.19
	c27.256-27.038,66.557-41.518,117.898-43.47c10.527-0.401,20.357-0.223,29.492,0.521c9.135,0.71,17.828,1.912,26.073,3.52
	l2.072,45.531c0.321,6.88-4.556,11.458-10.81,10.188c0,0,0,0-6.76-0.818c-6.764-0.801-13.967-1.076-21.598-0.796
	c-29.489,1.116-51.861,9.375-67.118,24.76c-13.925,14.017-20.953,31.714-21.263,52.943c-0.024,2.055-0.077,4.064,0.021,6.17
	c1.05,23.054,6.969,40.116,17.754,51.151c10.785,11.001,22.47,18.556,35.052,22.648c6.68,1.917,13.206,3.177,19.558,3.795
	c5.135,0.475,9.704,0.687,13.778,0.664l94.877-0.189c-12.822-19.013-20.775-39.492-23.622-61.562
	c-0.38-2.37-0.691-4.837-0.931-7.372c-0.251-2.513-0.426-4.979-0.537-7.372c-0.08-1.666-0.087-3.303-0.119-4.911
	c-0.642-38.662,12.072-70.966,38.209-96.899c27.256-27.015,66.563-41.536,117.898-43.459c10.527-0.389,20.36-0.223,29.495,0.504
	c9.135,0.755,17.814,1.929,26.073,3.531l2.068,45.542C1093.251,110.195,1088.389,114.797,1082.128,113.566z M561.706,300.021
	c-29.939,24.153-66.623,36.207-110.102,36.207c-44.017,0-80.854-12.054-110.5-36.207c-29.663-24.119-44.484-59.433-44.484-105.977
	c0-8.351,0.495-16.329,1.437-23.976c0.3-2.358,0.757-4.648,1.141-6.966c5.323-31.726,19.199-56.937,41.906-75.413
	c29.645-24.13,66.483-36.173,110.5-36.173c43.479,0,80.163,12.042,110.102,36.173c28.281,22.814,43.183,55.764,44.728,98.817
	c0.087,2.478,0.154,4.974,0.154,7.538c0,9.507-0.656,18.504-1.905,27.055C599.831,254.496,585.527,280.836,561.706,300.021z
	 M518.559,181.624c-1.653-16.455-6.624-31.182-15.023-44.157c-10.464-16.157-27.776-24.245-51.931-24.245
	c-24.696,0-42.14,8.087-52.332,24.245c-6.488,10.308-10.834,21.692-13.185,34.147c-1.022,5.443-1.702,11.064-1.95,16.902
	c-0.077,1.837-0.16,3.657-0.16,5.529c0,21.566,5.166,40.414,15.498,56.571c10.321,16.186,27.706,24.256,52.13,24.256
	c24.155,0,41.467-8.07,51.931-24.256c7.702-11.899,12.554-25.269,14.58-40.099c0.729-5.306,1.116-10.783,1.116-16.472
	C519.232,189.78,518.97,185.66,518.559,181.624z M140.243,268.628c-1.329,0-2.648-0.029-3.969-0.075
	c-9.516-0.194-9.721-10.028-9.721-10.028v-44.277c0-5.477,4.001-6.839,6.066-7.195l0.394-0.057c0.464-0.052,0.802-0.069,0.802-0.069
	l-0.045-0.023c10.105-1.328,18.731-4.67,25.801-10.096c9.387-7.217,14.085-18.304,14.085-33.259c0-1.705-0.202-4.573-0.603-8.631
	c-0.216-2.221-0.816-4.51-1.716-6.92c-0.746-1.98-1.702-4.024-2.913-6.118c-0.841-1.5-1.793-2.913-2.822-4.224
	c-0.258-0.326-0.593-0.653-0.876-0.984c-0.82-0.945-1.653-1.895-2.56-2.759l-0.46-0.498l-0.199-0.069
	c-12.606-11.424-32.474-13.908-40.612-14.44l-0.154-0.074c-0.453-0.023-0.942-0.017-1.402-0.023
	c-1.298-0.074-2.093-0.074-2.093-0.074l0.028,0.017c-0.666-0.006-1.301-0.023-1.985-0.023H90.998
	c-7.677,0-13.952,5.712-13.952,12.746v1.488v184.641c0,7.011-6.275,12.746-13.949,12.746H13.945C6.271,330.35,0,324.615,0,317.604
	V115.798V70.479c0-4.367,2.442-8.225,6.146-10.543c2.229-1.368,4.918-2.198,7.799-2.198h103.087c7.67,0,20.168,0.796,27.772,1.734
	c0,0,14.085,1.78,30.978,5.649h-0.021l0.052,0.011c5.093,1.179,10.444,2.541,15.738,4.109c17.953,6.273,46.776,21.429,62.416,56.583
	c3.157,7.893,5.26,16.072,6.237,24.508c0.262,2.209,0.467,4.464,0.6,6.788c0.049,0.841,0.049,1.608,0.073,2.41
	c0.028,0.973,0.073,1.98,0.084,2.936c0.01,0.464,0.045,0.973,0.045,1.454c0,29.396-10.332,54.196-30.992,74.4
	C209.345,258.509,179.424,268.628,140.243,268.628z"/>
</svg>
