<?xml version="1.0" encoding="utf-8"?>
<!-- Generator: Adobe Illustrator 24.3.0, SVG Export Plug-In . SVG Version: 6.00 Build 0)  -->
<svg version="1.1" id="Layer_1" xmlns="http://www.w3.org/2000/svg" xmlns:xlink="http://www.w3.org/1999/xlink" x="0px" y="0px"
	 width="40.253px" height="40.254px" viewBox="0 0 40.253 40.254" enable-background="new 0 0 40.253 40.254" xml:space="preserve">
<path fill-rule="evenodd" clip-rule="evenodd" d="M0,1.342C0,0.601,0.601,0,1.342,0h4.025C5.983,0,6.52,0.42,6.669,1.017l1.087,4.35
	h31.157c0.741,0,1.341,0.602,1.341,1.343c0,0.088-0.009,0.176-0.026,0.262L37.543,20.39c-0.121,0.602-0.635,1.045-1.248,1.076
	l-25.218,1.267l0.77,4.103h23.039c0.741,0,1.342,0.601,1.342,1.342s-0.601,1.342-1.342,1.342H10.734
	c-0.645-0.001-1.199-0.461-1.318-1.095L5.394,6.996L4.321,2.684H1.342C0.601,2.684,0,2.083,0,1.342z M8.325,8.051l2.254,12.02
	l24.539-1.232l2.158-10.788H8.325z M13.418,29.52c-2.964,0-5.367,2.403-5.367,5.367s2.403,5.367,5.367,5.367
	s5.367-2.403,5.367-5.367S16.382,29.52,13.418,29.52z M32.203,29.52c-2.964,0-5.367,2.403-5.367,5.367s2.403,5.367,5.367,5.367
	s5.367-2.403,5.367-5.367S35.167,29.52,32.203,29.52z M13.418,32.203c-1.482,0-2.684,1.201-2.684,2.684s1.201,2.684,2.684,2.684
	s2.684-1.201,2.684-2.684S14.9,32.203,13.418,32.203z M32.203,32.203c-1.482,0-2.684,1.201-2.684,2.684s1.201,2.684,2.684,2.684
	s2.684-1.201,2.684-2.684S33.685,32.203,32.203,32.203z"/>
</svg>
