<?xml version="1.0" encoding="utf-8"?>
<!-- Generator: Adobe Illustrator 24.3.0, SVG Export Plug-In . SVG Version: 6.00 Build 0)  -->
<svg version="1.1" id="Layer_1" xmlns="http://www.w3.org/2000/svg" xmlns:xlink="http://www.w3.org/1999/xlink" x="0px" y="0px"
	 width="82.125px" height="82.125px" viewBox="0 0 82.125 82.125" enable-background="new 0 0 82.125 82.125" xml:space="preserve">
<path fill-rule="evenodd" clip-rule="evenodd" d="M75.281,82.125c0,0,6.844,0,6.844-6.844s-6.844-27.375-41.062-27.375
	S0,68.438,0,75.281s6.844,6.844,6.844,6.844H75.281z M6.878,75.664v-0.014V75.664z M6.994,75.281h68.136
	c0.032-0.004,0.064-0.008,0.096-0.014l0.055-0.014c-0.007-1.684-1.054-6.748-5.694-11.388c-4.462-4.462-12.859-9.116-28.525-9.116
	c-15.672,0-24.063,4.654-28.525,9.116c-4.64,4.64-5.68,9.704-5.694,11.388C6.894,75.264,6.944,75.273,6.994,75.281z M75.254,75.664
	v-0.014V75.664z M41.062,34.219c7.559,0,13.688-6.128,13.688-13.688S48.622,6.844,41.062,6.844s-13.688,6.128-13.688,13.688
	S33.503,34.219,41.062,34.219z M61.594,20.531c0,11.339-9.192,20.531-20.531,20.531S20.531,31.87,20.531,20.531S29.723,0,41.062,0
	S61.594,9.192,61.594,20.531z"/>
</svg>
