<?xml version="1.0" encoding="utf-8"?>
<!-- Generator: Adobe Illustrator 24.3.0, SVG Export Plug-In . SVG Version: 6.00 Build 0)  -->
<svg version="1.1" id="Layer_1" xmlns="http://www.w3.org/2000/svg" xmlns:xlink="http://www.w3.org/1999/xlink" x="0px" y="0px"
	 width="56.775px" height="56.775px" viewBox="0 0 56.775 56.775" enable-background="new 0 0 56.775 56.775" xml:space="preserve">
<path fill-rule="evenodd" clip-rule="evenodd" d="M37.105,37.105c1.36-1.36,3.691-1.36,5.051,0l0,0l13.599,13.599
	c1.36,1.36,1.36,3.691,0,5.051c-1.36,1.36-3.691,1.36-5.051,0L37.105,42.156C35.745,40.796,35.745,38.465,37.105,37.105
	L37.105,37.105L37.105,37.105z"/>
<path fill-rule="evenodd" clip-rule="evenodd" d="M23.118,42.545c10.879,0,19.621-8.742,19.621-19.621S33.803,3.497,23.118,3.497
	l0,0c-10.879,0-19.621,8.742-19.621,19.621S12.239,42.545,23.118,42.545z M46.236,23.118c0,12.822-10.296,23.118-23.118,23.118
	S0,35.745,0,23.118S10.296,0,23.118,0S46.236,10.296,46.236,23.118z"/>
</svg>
