<svg width="19" height="21" viewBox="0 0 19 21" fill="none" xmlns="http://www.w3.org/2000/svg">
<path d="M9.16 1.309C10.967 1.309 12.432 2.774 12.432 4.581V5.235H5.888V4.58C5.888 2.773 7.353 1.309 9.16 1.309ZM13.74 5.235V4.58C13.74 2.05 11.689 0 9.16 0C6.631 0 4.58 2.051 4.58 4.58V5.234H0V18.321C0 19.766 1.172 20.938 2.617 20.938H15.703C17.148 20.938 18.32 19.766 18.32 18.321V5.235H13.74ZM1.308 6.543H17.012V18.321C17.012 19.044 16.426 19.63 15.703 19.63H2.616C1.893 19.63 1.307 19.044 1.307 18.321V6.543H1.308Z" fill="black"/>
</svg>
