<!-- Generated by IcoMoon.io -->
<svg version="1.1" xmlns="http://www.w3.org/2000/svg" width="40" height="32" viewBox="0 0 40 32">
<title>filter</title>
<path d="M31.003 0.063c-2.22 0.307-4.404 1.663-5.634 3.5-0.363 0.54-0.897 1.677-0.987 2.104l-0.067 0.303-22.846 0.050-0.377 0.203c-0.723 0.39-1.080 0.987-1.080 1.817 0 0.787 0.493 1.514 1.24 1.824 0.31 0.13 1.65 0.147 11.701 0.147h11.351l0.063 0.317c0.033 0.173 0.243 0.69 0.467 1.15 2.254 4.624 8.068 5.964 12.178 2.8 1.18-0.907 2.28-2.557 2.717-4.084 0.457-1.584 0.333-3.707-0.3-5.234-0.607-1.457-1.964-3.050-3.234-3.794-1.563-0.917-3.534-1.333-5.194-1.103zM32.997 4.144c0.79 0.207 1.26 0.477 1.85 1.067 1.537 1.54 1.574 3.93 0.087 5.504-0.827 0.873-1.74 1.27-2.924 1.27-1.14 0-2.107-0.433-2.92-1.303-1.393-1.494-1.403-3.807-0.023-5.334 1-1.107 2.52-1.574 3.93-1.203zM6.537 16.162c-1.323 0.25-2.467 0.777-3.534 1.62-3.234 2.57-3.96 7.181-1.683 10.658 0.7 1.070 1.86 2.1 3.024 2.684 1.36 0.68 2.187 0.877 3.65 0.877 1.45 0 2.277-0.197 3.63-0.863 1.547-0.763 2.904-2.17 3.637-3.774 0.173-0.377 0.347-0.823 0.38-0.99l0.067-0.303 22.849-0.047 0.417-0.233c0.63-0.353 0.973-0.903 1.020-1.63 0.043-0.667-0.137-1.133-0.607-1.58-0.607-0.577 0.113-0.543-12.318-0.543h-11.355l-0.060-0.323c-0.103-0.553-0.853-1.96-1.437-2.69-1.807-2.277-4.824-3.4-7.681-2.86zM9.128 20.209c0.717 0.21 1.207 0.523 1.77 1.117 1.494 1.58 1.45 3.964-0.1 5.517-1.577 1.58-4.034 1.57-5.627-0.020-1.193-1.193-1.5-2.92-0.79-4.487 0.247-0.547 0.95-1.347 1.47-1.677 0.903-0.573 2.244-0.757 3.277-0.45z"></path>
</svg>
