<svg width="24" height="21" viewBox="0 0 24 21" fill="none" xmlns="http://www.w3.org/2000/svg">
<path fill-rule="evenodd" clip-rule="evenodd" d="M11.7079 3.86246L10.5799 2.84746C8.21088 0.36546 3.69888 1.26846 2.00688 4.31346C1.21688 5.66746 1.10488 7.81046 2.45788 10.4045C3.81188 12.8865 6.63188 15.9315 11.5949 19.3155C16.6709 16.0445 19.3779 12.9985 20.7319 10.4045C22.0859 7.81046 21.9729 5.66646 21.1829 4.31346C19.7169 1.26746 15.2049 0.36546 12.7229 2.84746L11.7079 3.86246ZM11.7079 20.8955C-10.7391 6.79546 4.82688 -4.25854 11.3699 1.60646C11.4829 1.71946 11.5959 1.71946 11.5959 1.83246C11.7089 1.71946 11.7089 1.71946 11.8219 1.60646C18.5889 -4.25954 34.0419 6.79546 11.7079 20.8955Z" fill="black"/>
</svg>
