<!-- Generated by IcoMoon.io -->
<svg version="1.1" xmlns="http://www.w3.org/2000/svg" width="32" height="32" viewBox="0 0 32 32">
<title>icon_4</title>
<path d="M6 0.708c1.178 0 2.331 0.349 3.31 1.004s1.744 1.585 2.195 2.674c0.451 1.089 0.569 2.287 0.339 3.443s-0.797 2.218-1.631 3.051c-0.833 0.833-1.895 1.401-3.051 1.631s-2.354 0.112-3.443-0.339c-1.089-0.451-2.019-1.215-2.674-2.195s-1.004-2.132-1.004-3.31c0-1.58 0.628-3.096 1.745-4.213s2.633-1.745 4.213-1.745zM26 0.667c1.187 0 2.347 0.352 3.333 1.011s1.756 1.596 2.21 2.693c0.454 1.096 0.573 2.303 0.341 3.467s-0.803 2.233-1.642 3.072c-0.839 0.839-1.908 1.411-3.072 1.642s-2.37 0.113-3.467-0.341c-1.096-0.454-2.033-1.223-2.693-2.21s-1.011-2.147-1.011-3.333c0-1.591 0.632-3.117 1.757-4.243s2.651-1.757 4.243-1.757v0zM6 19.333c1.187 0 2.347 0.352 3.333 1.011s1.756 1.596 2.21 2.693c0.454 1.096 0.573 2.303 0.341 3.467s-0.803 2.233-1.642 3.072c-0.839 0.839-1.908 1.411-3.072 1.642s-2.37 0.113-3.467-0.341c-1.096-0.454-2.033-1.223-2.693-2.21s-1.011-2.147-1.011-3.333c0-1.591 0.632-3.117 1.757-4.243s2.651-1.757 4.243-1.757v0zM26 19.333c1.187 0 2.347 0.352 3.333 1.011s1.756 1.596 2.21 2.693c0.454 1.096 0.573 2.303 0.341 3.467s-0.803 2.233-1.642 3.072c-0.839 0.839-1.908 1.411-3.072 1.642s-2.37 0.113-3.467-0.341c-1.096-0.454-2.033-1.223-2.693-2.21s-1.011-2.147-1.011-3.333c0-1.591 0.632-3.117 1.757-4.243s2.651-1.757 4.243-1.757v0z"></path>
</svg>
