<!-- Generated by IcoMoon.io -->
<svg version="1.1" xmlns="http://www.w3.org/2000/svg" width="32" height="32" viewBox="0 0 32 32">
<title>inst</title>
<path d="M15.998 9.5c-3.618 0-6.562 2.944-6.562 6.562s2.944 6.562 6.562 6.562c3.618 0 6.562-2.944 6.562-6.562s-2.944-6.562-6.562-6.562zM15.998 9.5c-3.618 0-6.562 2.944-6.562 6.562s2.944 6.562 6.562 6.562c3.618 0 6.562-2.944 6.562-6.562s-2.944-6.562-6.562-6.562zM27.31 0h-22.626c-2.588 0-4.688 2.1-4.688 4.688v22.626c0 2.588 2.1 4.688 4.688 4.688h22.626c2.588 0 4.688-2.1 4.688-4.688v-22.626c0-2.588-2.1-4.688-4.688-4.688zM15.998 25.1c-4.982 0-9.038-4.056-9.038-9.038s4.056-9.038 9.038-9.038c4.982 0 9.038 4.056 9.038 9.038s-4.056 9.038-9.038 9.038zM26.31 7.626c-1.032 0-1.876-0.844-1.876-1.876s0.844-1.876 1.876-1.876c1.032 0 1.876 0.844 1.876 1.876s-0.844 1.876-1.876 1.876zM15.998 9.5c-3.618 0-6.562 2.944-6.562 6.562s2.944 6.562 6.562 6.562c3.618 0 6.562-2.944 6.562-6.562s-2.944-6.562-6.562-6.562zM15.998 9.5c-3.618 0-6.562 2.944-6.562 6.562s2.944 6.562 6.562 6.562c3.618 0 6.562-2.944 6.562-6.562s-2.944-6.562-6.562-6.562zM15.998 9.5c-3.618 0-6.562 2.944-6.562 6.562s2.944 6.562 6.562 6.562c3.618 0 6.562-2.944 6.562-6.562s-2.944-6.562-6.562-6.562z"></path>
</svg>
