<!-- Generated by IcoMoon.io -->
<svg version="1.1" xmlns="http://www.w3.org/2000/svg" width="32" height="32" viewBox="0 0 32 32">
<title>inst-border</title>
<path d="M0 5.031c0-2.777 2.254-5.031 5.031-5.031h21.939c2.776 0 5.030 2.253 5.031 5.031v21.94c0 2.777-2.254 5.031-5.031 5.031h-21.939c-2.777 0-5.031-2.254-5.031-5.031v-21.939zM5.031 0.97c-2.241 0-4.061 1.819-4.061 4.061v21.939c0 2.241 1.819 4.061 4.061 4.061h21.939c2.241 0 4.061-1.819 4.061-4.061v-21.939c0 0 0 0 0 0-0.001-2.242-1.82-4.061-4.061-4.061h-21.939zM26 4.727c-0.732 0-1.333 0.601-1.333 1.333s0.601 1.333 1.333 1.333c0.732 0 1.333-0.601 1.333-1.333s-0.601-1.333-1.333-1.333zM23.697 6.061c0-1.268 1.035-2.303 2.303-2.303s2.303 1.035 2.303 2.303-1.036 2.303-2.303 2.303c-1.268 0-2.303-1.035-2.303-2.303zM9.151 16.061c0-3.777 3.072-6.849 6.849-6.849s6.849 3.072 6.849 6.849c0 3.777-3.072 6.849-6.849 6.849s-6.849-3.072-6.849-6.849zM16 10.182c-3.242 0-5.879 2.638-5.879 5.879s2.638 5.879 5.879 5.879 5.879-2.638 5.879-5.879c0-3.242-2.638-5.879-5.879-5.879z"></path>
</svg>
