<svg width="21" height="21" viewBox="0 0 21 21" fill="none" xmlns="http://www.w3.org/2000/svg">
<path fill-rule="evenodd" clip-rule="evenodd" d="M1.62 20.899C1.06 20.899 0 20.56 0 19.279C0 17.369 1.887 12.411 10.5 12.411C19.113 12.411 21 17.369 21 19.279C21 20.56 19.94 20.899 19.38 20.899H1.62ZM10.501 13.835C7.304 13.835 4.736 14.623 2.87 16.177C1.961 17.087 1.637 18.083 1.526 18.759L1.41 19.577H19.594L19.477 18.761C19.366 17.98 18.816 16.962 18.138 16.285C17.02 15.167 14.788 13.835 10.501 13.835ZM10.501 10.302C7.613 10.302 5.35 8.04 5.35 5.151C5.35 2.262 7.613 0 10.501 0C13.389 0 15.652 2.263 15.652 5.151C15.652 8.039 13.389 10.302 10.501 10.302ZM10.501 1.422C8.444 1.422 6.772 3.095 6.772 5.151C6.772 7.207 8.444 8.88 10.501 8.88C12.558 8.88 14.23 7.207 14.23 5.151C14.23 3.095 12.557 1.422 10.501 1.422Z" fill="black"/>
</svg>
