<svg width="21" height="21" viewBox="0 0 21 21" fill="none" xmlns="http://www.w3.org/2000/svg">
<path fill-rule="evenodd" clip-rule="evenodd" d="M19.9249 20.8951C19.6529 20.8951 19.3999 20.7961 19.2269 20.6241L14.1389 15.5351C13.9129 15.3451 13.7949 15.0981 13.7949 14.8371C13.7949 14.5771 13.9119 14.3291 14.1189 14.1591C14.3119 13.9681 14.5649 13.8701 14.8369 13.8701C15.1079 13.8701 15.3609 13.9691 15.5339 14.1411L20.6219 19.2291C20.7949 19.4021 20.8939 19.6561 20.8939 19.9261C20.8939 20.1981 20.7949 20.4521 20.6219 20.6251C20.4499 20.7961 20.1959 20.8951 19.9249 20.8951Z" fill="black"/>
<path fill-rule="evenodd" clip-rule="evenodd" d="M8.741 17.291C3.921 17.291 0 13.413 0 8.646C0 3.798 3.797 0 8.645 0C13.465 0 17.386 3.878 17.386 8.646C17.386 13.412 13.507 17.291 8.741 17.291ZM8.645 1.45C4.678 1.45 1.449 4.678 1.449 8.645C1.449 12.545 4.745 15.841 8.645 15.841C12.612 15.841 15.84 12.612 15.84 8.645C15.84 4.678 12.612 1.45 8.645 1.45Z" fill="black"/>
</svg>
