<!-- Generated by IcoMoon.io -->
<svg version="1.1" xmlns="http://www.w3.org/2000/svg" width="32" height="32" viewBox="0 0 32 32">
<title>tg</title>
<path d="M31.681 4.918c0.421-1.971-0.724-2.745-2.021-2.257l-28.194 10.728c-1.92 0.741-1.886 1.82-0.32 2.291l7.208 2.239 16.741-10.425c0.775-0.505 1.499-0.219 0.909 0.286l-13.541 12.093-0.522 7.36c0.282 0.004 0.562-0.058 0.816-0.181s0.477-0.303 0.649-0.526l3.52-3.352 7.309 5.322c0.232 0.203 0.519 0.335 0.825 0.378s0.617-0.003 0.898-0.133c0.28-0.13 0.516-0.339 0.68-0.6s0.248-0.565 0.242-0.874l4.8-22.35z"></path>
</svg>
