<!-- Generated by IcoMoon.io -->
<svg version="1.1" xmlns="http://www.w3.org/2000/svg" width="32" height="32" viewBox="0 0 32 32">
<title>truck</title>
<path d="M0 6.555c0-1.657 1.344-2.999 3.001-2.999h18c1.657 0 3.001 1.344 3.001 3.001v3.001h2.041c0.91 0 1.771 0.414 2.34 1.125l2.962 3.7c0.425 0.532 0.656 1.193 0.656 1.876v4.299c0 1.657-1.344 3.001-3.001 3.001h-0.999c0 2.21-1.79 4-4 4s-4-1.79-4-4h-10c0.005 2.21-1.781 4.004-3.991 4.009s-4.004-1.781-4.009-3.991c0-0.062 0.002-0.124 0.004-0.187-1.2-0.427-2.004-1.561-2.004-2.834v-14zM2.588 21.467c1.15-1.884 3.611-2.478 5.495-1.328 0.571 0.348 1.045 0.836 1.38 1.415h11.072c0.352-0.608 0.857-1.113 1.465-1.465v-13.534c0-0.553-0.448-1.001-1.001-1.001h-17.998c-0.553 0-1.001 0.448-1.001 1.001v14c0 0.393 0.229 0.75 0.588 0.912zM24 19.556c1.429 0 2.75 0.763 3.465 2h1.536c0.553 0 1.001-0.448 1.001-1.001v-4.3c0-0.228-0.078-0.446-0.22-0.624l-2.96-3.7c-0.19-0.236-0.478-0.375-0.78-0.375h-2.041v8zM6 21.556c-1.104 0-2 0.896-2 2s0.896 2 2 2c1.104 0 2-0.896 2-2s-0.896-2-2-2zM24 21.556c-1.104 0-2 0.896-2 2s0.896 2 2 2c1.104 0 2-0.896 2-2s-0.896-2-2-2z"></path>
</svg>
