<!-- Generated by IcoMoon.io -->
<svg version="1.1" xmlns="http://www.w3.org/2000/svg" width="32" height="32" viewBox="0 0 32 32">
<title>vk</title>
<path d="M30.261 7.5c0.209-0.71 0-1.238-1.030-1.238h-3.381c-0.316-0.020-0.631 0.063-0.896 0.236s-0.468 0.427-0.578 0.724c-1.051 2.465-2.452 4.766-4.16 6.832-0.181 0.267-0.413 0.495-0.683 0.672s-0.572 0.298-0.889 0.357c-0.223 0-0.543-0.25-0.543-0.96v-6.622c0-0.849-0.251-1.238-0.96-1.238h-5.315c-0.107-0.006-0.214 0.008-0.315 0.043s-0.195 0.089-0.275 0.16c-0.080 0.071-0.145 0.157-0.192 0.253s-0.074 0.201-0.081 0.308c0 0.807 1.21 1.002 1.336 3.27v4.94c0 1.071-0.195 1.266-0.626 1.266-1.141 0-3.937-4.16-5.593-8.932-0.042-0.371-0.224-0.712-0.508-0.955s-0.65-0.369-1.023-0.353h-3.381c-0.974 0-1.169 0.459-1.169 0.96 0 0.877 1.155 5.287 5.356 11.103 1.116 1.763 2.633 3.236 4.427 4.3s3.815 1.688 5.897 1.821c2.157 0 2.421-0.487 2.421-1.308 0-3.784-0.195-4.146 0.89-4.146 0.501 0 1.363 0.251 3.367 2.157 2.31 2.282 2.685 3.297 3.965 3.297h3.395c0.187 0.047 0.383 0.040 0.566-0.020s0.345-0.171 0.467-0.32c0.122-0.149 0.2-0.329 0.224-0.52s-0.007-0.386-0.089-0.56c-0.64-1.99-4.995-6.066-5.19-6.33-0.102-0.095-0.184-0.21-0.239-0.338s-0.084-0.267-0.084-0.406 0.029-0.277 0.084-0.406c0.056-0.128 0.137-0.243 0.239-0.338 0-0.014 4.132-5.76 4.563-7.708z"></path>
</svg>
