<!-- Generated by IcoMoon.io -->
<svg version="1.1" xmlns="http://www.w3.org/2000/svg" width="32" height="32" viewBox="0 0 32 32">
<title>wa</title>
<path d="M23.68 18.387c-0.062-0.030-2.394-1.178-2.81-1.327-0.169-0.060-0.35-0.12-0.544-0.12-0.314 0-0.58 0.156-0.785 0.465-0.233 0.346-0.939 1.171-1.156 1.417-0.028 0.032-0.068 0.072-0.090 0.072s-0.382-0.149-0.491-0.196c-2.502-1.086-4.403-3.701-4.663-4.141-0.038-0.064-0.040-0.092-0.040-0.092 0.009-0.034 0.094-0.119 0.137-0.162 0.128-0.126 0.265-0.292 0.397-0.452 0.062-0.075 0.126-0.152 0.188-0.224 0.194-0.224 0.279-0.399 0.378-0.602l0.053-0.105c0.243-0.484 0.036-0.892-0.032-1.024-0.055-0.111-1.041-2.489-1.144-2.737-0.252-0.602-0.585-0.883-1.047-0.883-0.043 0 0 0-0.181 0.008-0.218 0.009-1.412 0.166-1.941 0.499-0.559 0.352-1.506 1.478-1.506 3.454 0 1.779 1.129 3.46 1.615 4.1 0.011 0.017 0.034 0.049 0.066 0.096 1.856 2.712 4.171 4.721 6.519 5.658 2.259 0.902 3.33 1.007 3.938 1.007 0.256 0 0.459-0.021 0.64-0.038l0.115-0.011c0.781-0.070 2.496-0.958 2.886-2.042 0.307-0.855 0.388-1.786 0.184-2.125-0.139-0.23-0.38-0.346-0.687-0.493z"></path>
<path d="M16.284 0c-8.666 0-15.718 6.999-15.718 15.599 0 2.782 0.745 5.506 2.155 7.889l-2.699 7.962c-0.051 0.149-0.013 0.312 0.096 0.424 0.079 0.081 0.186 0.124 0.297 0.124 0.041 0 0.085-0.006 0.126-0.019l8.303-2.639c2.272 1.214 4.84 1.854 7.439 1.854 8.666 0 15.716-6.997 15.716-15.597s-7.049-15.597-15.716-15.597zM16.284 27.947c-2.445 0-4.815-0.706-6.85-2.042-0.068-0.045-0.149-0.068-0.228-0.068-0.041 0-0.085 0.006-0.126 0.019l-4.16 1.321 1.342-3.962c0.043-0.128 0.023-0.269-0.058-0.378-1.551-2.12-2.37-4.621-2.37-7.239 0-6.81 5.585-12.35 12.45-12.35 6.863 0 12.448 5.54 12.448 12.35s-5.583 12.35-12.448 12.35z"></path>
</svg>
