<!-- Generated by IcoMoon.io -->
<svg version="1.1" xmlns="http://www.w3.org/2000/svg" width="32" height="32" viewBox="0 0 32 32">
<title>youtube</title>
<path d="M30.623 8.292c-0.181-0.661-0.532-1.263-1.017-1.746s-1.089-0.831-1.751-1.009c-2.435-0.654-12.216-0.654-12.216-0.654s-9.781 0-12.216 0.654c-0.662 0.178-1.265 0.526-1.751 1.009s-0.837 1.085-1.018 1.746c-0.872 4.975-0.872 10.065 0 15.040 0.182 0.656 0.534 1.252 1.020 1.728s1.089 0.816 1.748 0.985c2.435 0.654 12.216 0.654 12.216 0.654s9.781 0 12.216-0.654c0.659-0.169 1.262-0.509 1.748-0.985s0.838-1.073 1.020-1.728c0.872-4.975 0.872-10.065 0-15.040v0zM12.438 20.425v-9.225l8.181 4.62-8.181 4.605z"></path>
</svg>
